<svg width="24" height="24" viewBox="0 0 24 24" fill="none" xmlns="http://www.w3.org/2000/svg">
<mask id="mask0" mask-type="alpha" maskUnits="userSpaceOnUse" x="0" y="0" width="24" height="24">
<rect width="24" height="24" fill="white"/>
</mask>
<g mask="url(#mask0)">
<path fill-rule="evenodd" clip-rule="evenodd" d="M1.5 17C1.5 19.2091 3.29086 21 5.5 21H18.5C20.7091 21 22.5 19.2091 22.5 17V7C22.5 4.79086 20.7091 3 18.5 3H5.5C3.29086 3 1.5 4.79086 1.5 7V17ZM4.96853 6.91435C4.64508 6.65559 4.17311 6.70803 3.91435 7.03148C3.6556 7.35492 3.70804 7.82689 4.03148 8.08565L11.5315 14.0857C11.8054 14.3048 12.1946 14.3048 12.4685 14.0857L19.9685 8.08565C20.292 7.82689 20.3444 7.35492 20.0857 7.03148C19.8269 6.70803 19.3549 6.65559 19.0315 6.91435L12 12.5395L4.96853 6.91435Z" fill="#B8B8B8"/>
</g>
</svg>
