<svg width="15" height="20" viewBox="0 0 15 20" fill="none" xmlns="http://www.w3.org/2000/svg">
<path d="M3.702 1.2C3.82613 0.848906 4.0561 0.544954 4.36021 0.330034C4.66432 0.115113 5.02761 -0.000194976 5.4 2.47484e-07H9C9.37239 -0.000194976 9.73568 0.115113 10.0398 0.330034C10.3439 0.544954 10.5739 0.848906 10.698 1.2H12.6C13.0774 1.2 13.5352 1.38964 13.8728 1.72721C14.2104 2.06477 14.4 2.52261 14.4 3V17.4C14.4 17.8774 14.2104 18.3352 13.8728 18.6728C13.5352 19.0104 13.0774 19.2 12.6 19.2H1.8C1.32261 19.2 0.864773 19.0104 0.527208 18.6728C0.189642 18.3352 0 17.8774 0 17.4V3C0 2.52261 0.189642 2.06477 0.527208 1.72721C0.864773 1.38964 1.32261 1.2 1.8 1.2H3.702ZM5.4 1.2C5.24087 1.2 5.08826 1.26321 4.97574 1.37574C4.86321 1.48826 4.8 1.64087 4.8 1.8C4.8 1.95913 4.86321 2.11174 4.97574 2.22426C5.08826 2.33679 5.24087 2.4 5.4 2.4H9C9.15913 2.4 9.31174 2.33679 9.42426 2.22426C9.53679 2.11174 9.6 1.95913 9.6 1.8C9.6 1.64087 9.53679 1.48826 9.42426 1.37574C9.31174 1.26321 9.15913 1.2 9 1.2H5.4ZM11.8248 6.1752C11.7123 6.06272 11.5597 5.99953 11.4006 5.99953C11.2415 5.99953 11.0889 6.06272 10.9764 6.1752L9.2808 7.8696L8.8044 7.4352C8.68603 7.33403 8.53296 7.28283 8.37755 7.29244C8.22213 7.30205 8.07653 7.3717 7.97152 7.48668C7.86651 7.60166 7.81032 7.75296 7.81481 7.90861C7.8193 8.06426 7.88413 8.21207 7.9956 8.3208L8.8956 9.1428C9.00964 9.24662 9.15927 9.30255 9.31344 9.29898C9.46762 9.2954 9.6145 9.2326 9.7236 9.1236L11.8236 7.0236C11.9361 6.91108 11.9993 6.7585 11.9993 6.5994C11.9993 6.4403 11.9361 6.28772 11.8236 6.1752H11.8248ZM11.8248 13.0248C11.9375 12.9123 12.0008 12.7596 12.0009 12.6004C12.001 12.4412 11.9379 12.2885 11.8254 12.1758C11.7129 12.0631 11.5602 11.9998 11.401 11.9997C11.2418 11.9996 11.0891 12.0627 10.9764 12.1752L9.2808 13.8696L8.8044 13.4352C8.68603 13.334 8.53296 13.2828 8.37755 13.2924C8.22213 13.302 8.07653 13.3717 7.97152 13.4867C7.86651 13.6017 7.81032 13.753 7.81481 13.9086C7.8193 14.0643 7.88413 14.2121 7.9956 14.3208L8.8956 15.1428C9.00948 15.2468 9.15903 15.3029 9.3132 15.2996C9.46738 15.2962 9.61434 15.2336 9.7236 15.1248L11.8236 13.0248H11.8248ZM3 7.2C2.84087 7.2 2.68826 7.26321 2.57574 7.37574C2.46321 7.48826 2.4 7.64087 2.4 7.8C2.4 7.95913 2.46321 8.11174 2.57574 8.22426C2.68826 8.33679 2.84087 8.4 3 8.4H6C6.15913 8.4 6.31174 8.33679 6.42426 8.22426C6.53679 8.11174 6.6 7.95913 6.6 7.8C6.6 7.64087 6.53679 7.48826 6.42426 7.37574C6.31174 7.26321 6.15913 7.2 6 7.2H3ZM2.4 13.8C2.4 13.9591 2.46321 14.1117 2.57574 14.2243C2.68826 14.3368 2.84087 14.4 3 14.4H6C6.15913 14.4 6.31174 14.3368 6.42426 14.2243C6.53679 14.1117 6.6 13.9591 6.6 13.8C6.6 13.6409 6.53679 13.4883 6.42426 13.3757C6.31174 13.2632 6.15913 13.2 6 13.2H3C2.84087 13.2 2.68826 13.2632 2.57574 13.3757C2.46321 13.4883 2.4 13.6409 2.4 13.8Z" fill="#31BA57"/>
</svg>
