<svg width="16" height="16" viewBox="0 0 16 16" fill="none" xmlns="http://www.w3.org/2000/svg">
<path d="M10 0H16V6H10V0ZM0 10H6V16H0V10ZM10 13C10 13.7956 10.3161 14.5587 10.8787 15.1213C11.4413 15.6839 12.2044 16 13 16C13.7956 16 14.5587 15.6839 15.1213 15.1213C15.6839 14.5587 16 13.7956 16 13C16 12.2044 15.6839 11.4413 15.1213 10.8787C14.5587 10.3161 13.7956 10 13 10C12.2044 10 11.4413 10.3161 10.8787 10.8787C10.3161 11.4413 10 12.2044 10 13ZM0 3C-5.87054e-09 3.39397 0.0775975 3.78407 0.228362 4.14805C0.379126 4.51203 0.600104 4.84274 0.87868 5.12132C1.15726 5.3999 1.48797 5.62087 1.85195 5.77164C2.21593 5.9224 2.60603 6 3 6C3.39397 6 3.78407 5.9224 4.14805 5.77164C4.51203 5.62087 4.84274 5.3999 5.12132 5.12132C5.3999 4.84274 5.62087 4.51203 5.77164 4.14805C5.9224 3.78407 6 3.39397 6 3C6 2.60603 5.9224 2.21593 5.77164 1.85195C5.62087 1.48797 5.3999 1.15726 5.12132 0.87868C4.84274 0.600104 4.51203 0.379125 4.14805 0.228361C3.78407 0.077597 3.39397 0 3 0C2.60603 0 2.21593 0.077597 1.85195 0.228361C1.48797 0.379125 1.15726 0.600104 0.87868 0.87868C0.600104 1.15726 0.379126 1.48797 0.228362 1.85195C0.0775975 2.21593 -5.87054e-09 2.60603 0 3Z" fill="#31BA57"/>
</svg>
