<svg width="19" height="21" viewBox="0 0 19 21" fill="none" xmlns="http://www.w3.org/2000/svg">
<path fill-rule="evenodd" clip-rule="evenodd" d="M14 5.25C14 8.1495 11.6495 10.5 8.75 10.5C5.85051 10.5 3.5 8.1495 3.5 5.25C3.5 2.35051 5.85051 0 8.75 0C11.6495 0 14 2.35051 14 5.25ZM8.75 12C10.2391 12 11.6157 11.5178 12.7319 10.701C16.0391 11.4827 18.5 14.454 18.5 18C18.5 19.2426 17.4926 20.25 16.25 20.25H1.25C0.00735998 20.25 -1 19.2426 -1 18C-1 14.454 1.46093 11.4827 4.76808 10.701C5.88433 11.5178 7.2609 12 8.75 12Z" fill="#31BA57"/>
</svg>
