<svg width="21" height="20" viewBox="0 0 21 20" fill="none" xmlns="http://www.w3.org/2000/svg">
<path d="M10.25 9.47528H1C1 14.0833 6.7985 18.0453 6.7985 18.0453H10.25" stroke="#B8B8B8" stroke-width="2" stroke-linecap="round" stroke-linejoin="round"/>
<path d="M3.69202 10.5283C3.69202 13.9243 7.50602 16.4303 7.50602 16.4303M10.25 9.47526H19.5C19.5 14.0833 13.7015 18.0453 13.7015 18.0453H10.25M5.29702 9.47526C4.62402 6.95576 9.12402 5.22376 13.162 4.68876L13.557 3.96176L15.149 5.89676L14.2755 6.03876C13.848 7.44376 11.708 9.47526 11.708 9.47526" stroke="#B8B8B8" stroke-width="2" stroke-linecap="round" stroke-linejoin="round"/>
<path d="M6.005 9.47526C6.149 8.17826 7.653 6.71826 13.391 4.96576" stroke="#B8B8B8" stroke-width="2" stroke-linecap="round" stroke-linejoin="round"/>
<path d="M13.539 5.14627C11.369 6.23327 8.83898 7.48227 7.06598 9.47527M13.9625 5.65977C11.7075 8.72277 10.25 9.47527 10.25 9.47527M9.00248 9.47527C10.3625 8.68027 13.7475 5.39827 13.7475 5.39827M14.7885 5.46777L18.864 2.16477C18.9309 2.11061 18.9865 2.04378 19.0276 1.96811C19.0687 1.89244 19.0944 1.80941 19.1034 1.72378C19.1124 1.63814 19.1043 1.55158 19.0798 1.46904C19.0553 1.38651 19.0147 1.30962 18.9605 1.24277C18.9063 1.17589 18.8394 1.12035 18.7638 1.0793C18.6881 1.03826 18.6051 1.01252 18.5195 1.00356C18.4338 0.9946 18.3473 1.00259 18.2648 1.02708C18.1823 1.05156 18.1054 1.09206 18.0385 1.14627L13.9625 4.44877" stroke="#B8B8B8" stroke-width="2" stroke-linecap="round" stroke-linejoin="round"/>
</svg>
