<svg width="22" height="23" viewBox="0 0 22 23" fill="none" xmlns="http://www.w3.org/2000/svg">
<path fill-rule="evenodd" clip-rule="evenodd" d="M16.25 6.25C16.25 9.1495 13.8995 11.5 11 11.5C8.10051 11.5 5.75 9.1495 5.75 6.25C5.75 3.35051 8.10051 1 11 1C13.8995 1 16.25 3.35051 16.25 6.25ZM11 13C12.4891 13 13.8657 12.5178 14.9819 11.701C18.2891 12.4827 20.75 15.454 20.75 19C20.75 20.2426 19.7426 21.25 18.5 21.25H3.5C2.25736 21.25 1.25 20.2426 1.25 19C1.25 15.454 3.71093 12.4827 7.01808 11.701C8.13433 12.5178 9.5109 13 11 13Z" stroke="#B8B8B8" stroke-width="2"/>
</svg>
