<svg width="19" height="18" viewBox="0 0 19 18" fill="none" xmlns="http://www.w3.org/2000/svg">
<path d="M9.25 8.47528H0C0 13.0833 5.7985 17.0453 5.7985 17.0453H9.25" fill="#31BA57"/>
<path d="M2.69202 9.52826C2.69202 12.9243 6.50602 15.4303 6.50602 15.4303ZM9.25002 8.47526H18.5C18.5 13.0833 12.7015 17.0453 12.7015 17.0453H9.25002M4.29702 8.47526C3.62402 5.95576 8.12402 4.22376 12.162 3.68876L12.557 2.96176L14.149 4.89676L13.2755 5.03876C12.848 6.44376 10.708 8.47526 10.708 8.47526" fill="#31BA57"/>
<path d="M5.005 8.47526C5.149 7.17826 6.653 5.71826 12.391 3.96576Z" fill="#31BA57"/>
<path d="M12.539 4.14627C10.369 5.23327 7.83898 6.48227 6.06598 8.47527ZM12.9625 4.65977C10.7075 7.72277 9.24998 8.47527 9.24998 8.47527ZM8.00248 8.47527C9.36248 7.68027 12.7475 4.39827 12.7475 4.39827ZM13.7885 4.46777L17.864 1.16477C17.9309 1.11061 17.9865 1.04378 18.0276 0.968109C18.0687 0.892439 18.0944 0.809412 18.1034 0.723777C18.1124 0.638143 18.1043 0.551581 18.0798 0.469045C18.0553 0.386508 18.0147 0.309617 17.9605 0.242769C17.9063 0.175892 17.8394 0.120346 17.7638 0.0793024C17.6881 0.038259 17.6051 0.012522 17.5195 0.00356114C17.4338 -0.00539977 17.3473 0.00259091 17.2648 0.0270768C17.1823 0.0515628 17.1054 0.0920644 17.0385 0.146269L12.9625 3.44877" fill="#31BA57"/>
</svg>
