<svg width="26" height="26" viewBox="0 0 26 26" fill="none" xmlns="http://www.w3.org/2000/svg">
<path d="M4 25C3.175 25 2.4685 24.7312 1.8805 24.1936C1.2925 23.656 0.999003 23.0105 1 22.2571V9.91428C1 9.48 1.1065 9.06857 1.3195 8.68C1.5325 8.29143 1.826 7.97143 2.2 7.72L11.2 1.54857C11.475 1.36571 11.7625 1.22857 12.0625 1.13714C12.3625 1.04571 12.675 1 13 1C13.325 1 13.6375 1.04571 13.9375 1.13714C14.2375 1.22857 14.525 1.36571 14.8 1.54857L23.8 7.72C24.175 7.97143 24.469 8.29143 24.682 8.68C24.895 9.06857 25.001 9.48 25 9.91428V22.2571C25 23.0114 24.706 23.6574 24.118 24.195C23.53 24.7326 22.824 25.0009 22 25H16V15.4H10V25H4Z" stroke="#2B2B2B" stroke-width="2"/>
</svg>
